<?xml version="1.0" encoding="UTF-8"?>
<svg version="1.1" xmlns="http://www.w3.org/2000/svg" width="1024" height="1024">
<path d="M0 0 C337.92 0 675.84 0 1024 0 C1024 337.92 1024 675.84 1024 1024 C686.08 1024 348.16 1024 0 1024 C0 686.08 0 348.16 0 0 Z " fill="#000000" transform="translate(0,0)"/>
<path d="M0 0 C0.94302979 0.49371094 1.88605957 0.98742187 2.85766602 1.49609375 C4.42641479 2.31605835 4.42641479 2.31605835 6.02685547 3.15258789 C10.84001728 5.78076615 15.58210829 8.51192385 20.29907227 11.30859375 C22.40547628 12.54749888 24.51226052 13.78575773 26.61938477 15.0234375 C27.69736328 15.65749512 28.7753418 16.29155273 29.88598633 16.94482422 C35.29871567 20.11578015 40.73674288 23.24257192 46.17407227 26.37109375 C55.51298386 31.74974614 64.83047858 37.16369005 74.13500977 42.6015625 C81.46690991 46.88331521 88.81678033 51.13314066 96.17407227 55.37109375 C109.52422892 63.06226844 122.83140355 70.82592335 136.13305664 78.60058594 C148.55489817 85.85962517 160.99565647 93.08413546 173.46264648 100.26538086 C181.69242166 105.00870169 189.90249909 109.78486566 198.09985352 114.58398438 C203.44205157 117.70793198 208.79815488 120.80555488 214.17407227 123.87109375 C215.35381022 124.54548466 216.53349806 125.21996325 217.71313477 125.89453125 C219.95535891 127.17507912 222.200007 128.45139574 224.44750977 129.72265625 C243.40436272 140.56196512 243.40436272 140.56196512 246.17407227 148.87109375 C246.82738466 153.63094118 246.25757148 156.25024612 243.48657227 160.05859375 C239.75624894 164.79138122 235.15551133 168.02572116 229.94750977 170.98046875 C228.4209375 171.85251953 228.4209375 171.85251953 226.86352539 172.7421875 C225.22287109 173.67224609 225.22287109 173.67224609 223.54907227 174.62109375 C221.19071767 175.96729191 218.8345464 177.31728275 216.47875977 178.66796875 C215.87429016 179.01420288 215.26982056 179.36043701 214.64703369 179.71716309 C208.28344945 183.3690203 201.97746715 187.11647689 195.67407227 190.87109375 C185.69342082 196.80957054 175.66141457 202.65091854 165.59204102 208.4375 C158.75782471 212.36883316 151.95408988 216.34708038 145.17407227 220.37109375 C137.42321016 224.965899 129.65403447 229.52833722 121.85791016 234.04589844 C120.1501705 235.03621077 118.44432492 236.02978705 116.73852539 237.0234375 C115.6950293 237.62671875 114.6515332 238.23 113.57641602 238.8515625 C112.6533667 239.38676514 111.73031738 239.92196777 110.77929688 240.47338867 C104.83719031 243.66133357 100.2218459 244.22556989 93.55297852 244.3125 C92.61663071 244.32627182 91.6802829 244.34004364 90.71556091 244.35423279 C88.73279692 244.37747486 86.74995531 244.3947555 84.76708984 244.40649414 C81.77688552 244.43323326 78.79032816 244.50812127 75.80102539 244.58398438 C63.71599514 244.74847349 55.39008803 243.54579033 45.17407227 236.87109375 C43.17419711 235.66255381 41.17421246 234.45419501 39.17407227 233.24609375 C37.59819336 232.25416016 37.59819336 232.25416016 35.99047852 231.2421875 C28.32502324 226.43732257 20.47312477 221.92923188 12.67456055 217.34521484 C10.52245606 216.0764776 8.37588589 214.79928596 6.23266602 213.515625 C5.18208008 212.89042969 4.13149414 212.26523437 3.04907227 211.62109375 C1.74583008 210.83992188 1.74583008 210.83992188 0.41625977 210.04296875 C-3.97695414 207.74686392 -7.87535128 207.40587104 -12.82592773 207.87109375 C-16.06277735 209.15955571 -19.00994866 210.86465422 -22.01342773 212.62109375 C-22.88926514 213.11843018 -23.76510254 213.6157666 -24.66748047 214.12817383 C-32.28245381 218.4796845 -39.80739811 222.98626033 -47.29858398 227.546875 C-50.87142042 229.7137003 -54.46934682 231.8300549 -58.09275818 233.91127014 C-60.56449891 235.33130931 -63.03048078 236.76121332 -65.49655151 238.19107056 C-66.70464509 238.8877926 -67.91548817 239.57977125 -69.12918091 240.26669312 C-70.83736154 241.23423499 -72.53497708 242.22035589 -74.23217773 243.20703125 C-75.21508789 243.7695459 -76.19799805 244.33206055 -77.21069336 244.91162109 C-81.13453303 247.85157042 -83.28483509 251.24781582 -84.82592773 255.87109375 C-84.94018164 257.94910791 -84.99523298 260.03055293 -85.01879883 262.11157227 C-85.03486176 263.40043839 -85.05092468 264.6893045 -85.06747437 266.01722717 C-85.07896645 267.42814469 -85.08957421 268.83906965 -85.09936523 270.25 C-85.10735075 271.31937459 -85.10735075 271.31937459 -85.11549759 272.41035271 C-85.14221595 276.18900348 -85.16158895 279.96762148 -85.17602539 283.74633789 C-85.18932332 286.85894429 -85.2170991 289.97088864 -85.25805664 293.08325195 C-85.30766888 296.85397093 -85.33218165 300.62409309 -85.33925247 304.39512444 C-85.34592103 305.82433528 -85.36102713 307.25353513 -85.38514328 308.68255806 C-85.5243071 317.4329855 -85.14153332 324.63575023 -79.82592773 331.87109375 C-77.44045939 334.21725115 -77.44045939 334.21725115 -74.69311523 335.59765625 C-73.72857422 336.14969727 -72.7640332 336.70173828 -71.77026367 337.27050781 C-70.79863281 337.79870117 -69.82700195 338.32689453 -68.82592773 338.87109375 C-67.05535123 339.91660785 -65.28708631 340.96604725 -63.52124023 342.01953125 C-61.66567837 343.09713654 -59.80885639 344.17257425 -57.95092773 345.24609375 C-55.86610619 346.45671077 -53.78148019 347.66766459 -51.69702148 348.87890625 C-50.59729004 349.51731445 -49.49755859 350.15572266 -48.36450195 350.81347656 C-42.55682842 354.18802076 -36.7607011 357.58232971 -30.965271 360.97784424 C-29.03861272 362.1063422 -27.11124124 363.23361504 -25.18383789 364.36083984 C-23.99548103 365.05689263 -22.80716519 365.75301547 -21.61889648 366.44921875 C-20.57241943 367.0618457 -19.52594238 367.67447266 -18.44775391 368.30566406 C-16.5424901 369.44325151 -14.67228003 370.64019222 -12.82592773 371.87109375 C-5.22374133 372.90775553 -0.60100702 370.04329188 5.79907227 366.18359375 C6.80107666 365.59779541 7.80308105 365.01199707 8.83544922 364.40844727 C11.95782971 362.57827188 15.06589739 360.72526555 18.17407227 358.87109375 C20.07016055 357.75733002 21.96726256 356.64528987 23.86547852 355.53515625 C27.5113672 353.39918756 31.14741778 351.2478764 34.77563477 349.08203125 C38.44254233 346.89309152 42.12561628 344.73554177 45.82250977 342.59765625 C47.62725332 341.54306467 49.43194293 340.48838077 51.23657227 339.43359375 C52.47733521 338.72577759 52.47733521 338.72577759 53.74316406 338.00366211 C54.51571533 337.54870361 55.2882666 337.09374512 56.08422852 336.625 C56.75591064 336.23642822 57.42759277 335.84785645 58.11962891 335.44750977 C61.9633941 332.49811085 64.73306248 330.16158088 65.66444397 325.32423401 C65.88868421 322.37288247 65.96938714 319.45575342 65.98657227 316.49609375 C66.01170898 315.47386719 66.0368457 314.45164062 66.06274414 313.3984375 C66.12137736 310.88893563 66.15783098 308.38116834 66.17407227 305.87109375 C65.26253891 305.8799762 64.35100555 305.88885864 63.41184998 305.89801025 C54.80513806 305.97828806 46.1985526 306.03912515 37.59155178 306.07834244 C33.16699132 306.0991826 28.74274123 306.12743447 24.31835938 306.17285156 C20.04543587 306.21643747 15.77281019 306.24025771 11.49968147 306.25060272 C9.87263364 306.25797131 8.24560138 306.27236053 6.61868095 306.29401398 C4.33267367 306.32321872 2.04788374 306.32704283 -0.23828125 306.32519531 C-1.53733902 306.33407776 -2.83639679 306.34296021 -4.17481995 306.35211182 C-9.37562 305.66692832 -13.14602896 303.71212567 -16.73999023 299.7734375 C-18.39570996 295.34825852 -18.2592013 291.11814102 -18.20092773 286.43359375 C-18.2125293 285.50482422 -18.22413086 284.57605469 -18.23608398 283.61914062 C-18.20821272 277.09262033 -17.44080893 272.67245771 -12.83760738 267.74097443 C-8.51544399 265.05744538 -4.84464761 265.31606329 0.15000916 265.36315918 C1.16276887 265.35691922 2.17552858 265.35067925 3.21897799 265.3442502 C6.61692437 265.32827917 10.0141575 265.34094104 13.41210938 265.35351562 C15.84643472 265.34809633 18.28075679 265.34097475 20.71507263 265.33227539 C26.64343014 265.31591259 32.57160202 265.31833097 38.49995439 265.32992595 C43.31864152 265.33896027 48.13727188 265.34018429 52.95596504 265.33583069 C53.98478474 265.33491129 53.98478474 265.33491129 55.03438868 265.33397332 C56.42776264 265.33269441 57.82113658 265.33139756 59.21451051 265.33008295 C72.28067248 265.31867647 85.3467222 265.33179144 98.41286577 265.35328442 C109.62165425 265.37115151 120.83027701 265.3680547 132.0390625 265.34960938 C145.05697612 265.32819693 158.07479132 265.31977932 171.09272009 265.33205843 C172.48126795 265.33333262 173.86981583 265.3345901 175.25836372 265.33583069 C176.28313393 265.33675634 176.28313393 265.33675634 177.32860656 265.33770069 C182.14040488 265.34115278 186.95214072 265.33532823 191.76392937 265.32591248 C198.24248699 265.31351383 204.72080529 265.32235825 211.1993351 265.3454895 C213.57856094 265.35078319 215.95781309 265.34925161 218.3370285 265.34043884 C221.58209333 265.32952628 224.82615126 265.34319636 228.07115173 265.36315918 C229.48725303 265.34977485 229.48725303 265.34977485 230.93196243 265.33612013 C236.50911471 265.40277788 239.76906504 266.11126493 244.17407227 269.87109375 C248.42316648 275.45951619 247.59510427 282.22282788 247.56225586 288.92553711 C247.5701413 290.89971367 247.5701413 290.89971367 247.57818604 292.91377258 C247.59182877 296.51303087 247.58657336 300.11203034 247.57704878 303.71129298 C247.56943475 307.4849902 247.57650277 311.25866577 247.58120728 315.03236389 C247.58666043 321.36984215 247.5794855 327.70721543 247.56518555 334.04467773 C247.54886686 341.36106887 247.55414352 348.67720908 247.57066476 355.99359411 C247.58430063 362.28508931 247.58618884 368.57650918 247.57834876 374.8680144 C247.57368285 378.62129454 247.57301732 382.37445694 247.58295822 386.12772942 C247.59327292 390.31438812 247.57895628 394.50061778 247.56225586 398.68725586 C247.56832855 399.9243631 247.57440125 401.16147034 247.58065796 402.43606567 C247.5183032 410.87789846 246.57320582 416.87909275 240.76293945 423.41943359 C237.48924037 426.41043155 233.63335389 428.49572548 229.79907227 430.68359375 C227.97874012 431.74866434 226.15842773 432.8137687 224.33813477 433.87890625 C223.44900391 434.39356445 222.55987305 434.90822266 221.64379883 435.43847656 C218.46777712 437.2807952 215.31992841 439.16518619 212.17407227 441.05859375 C211.59665283 441.40462646 211.0192334 441.75065918 210.42431641 442.10717773 C206.32175455 444.56807524 202.2326019 447.05055996 198.14672852 449.5390625 C184.85686963 457.63167851 171.52805665 465.65096158 158.13772583 473.57635498 C148.78034342 479.11631105 139.45868207 484.71006198 130.17407227 490.37109375 C120.11170657 496.50531239 110.00240634 502.55501154 99.86157227 508.55859375 C87.88880512 515.64817065 75.9719469 522.821871 64.10131836 530.08154297 C47.97403474 539.94084146 31.80254909 549.7210854 15.54907227 559.37109375 C14.8397757 559.7924057 14.13047913 560.21371765 13.39968872 560.64779663 C11.39537999 561.8378011 9.39037554 563.02662162 7.38500977 564.21484375 C6.78429153 564.57129471 6.1835733 564.92774567 5.56465149 565.29499817 C1.06224275 567.95867005 -1.55428229 569.08446311 -6.82592773 569.24609375 C-7.89842773 569.29507813 -8.97092773 569.3440625 -10.07592773 569.39453125 C-19.106391 568.13402909 -27.08916339 562.01900002 -34.71508789 557.31616211 C-37.78016453 555.42667816 -40.85403452 553.55159425 -43.92749023 551.67578125 C-44.57075256 551.28287903 -45.21401489 550.88997681 -45.87677002 550.48516846 C-53.1540637 546.04789327 -60.4895143 541.70964196 -67.82592773 537.37109375 C-78.55062097 531.02514909 -89.23139872 524.61311791 -99.87182617 518.12695312 C-109.42589564 512.30485765 -119.03639172 506.58313164 -128.67163086 500.89648438 C-136.86499397 496.05299949 -145.01054111 491.13573151 -153.13842773 486.18359375 C-163.36937707 479.95031239 -173.64928525 473.80659618 -183.97436523 467.73046875 C-191.19706475 463.47982965 -198.37463736 459.15463699 -205.55349731 454.83050537 C-211.88368516 451.01841143 -218.21853384 447.21605643 -224.5973053 443.48565674 C-227.14373625 441.99534367 -229.68486333 440.49611294 -232.22558594 438.99609375 C-233.50747096 438.24217847 -234.79168616 437.49221209 -236.078125 436.74609375 C-257.73170683 424.17146173 -257.73170683 424.17146173 -261.82592773 413.87109375 C-262.26024814 410.31916396 -262.23508456 406.79375865 -262.21360779 403.21890259 C-262.21899333 402.14544629 -262.22437886 401.07199 -262.2299276 399.96600473 C-262.24423619 396.36865871 -262.23709606 392.77167915 -262.22998047 389.17431641 C-262.23568252 386.59530847 -262.24264614 384.01630306 -262.2507782 381.43730164 C-262.26796536 375.15885737 -262.26880633 368.88051319 -262.26356529 362.60205151 C-262.2595219 357.49784758 -262.26096916 352.3936732 -262.26631355 347.28947067 C-262.26706197 346.56267339 -262.2678104 345.83587611 -262.2685815 345.08705466 C-262.270113 343.61049871 -262.27165135 342.13394276 -262.27319647 340.65738682 C-262.28692142 326.81337162 -262.28148405 312.96941295 -262.27001125 299.12539904 C-262.26008072 286.4664367 -262.2730164 273.80762055 -262.29694545 261.14868076 C-262.32134195 248.14425426 -262.33094285 235.13989583 -262.32429272 222.13544691 C-262.32080148 214.83694481 -262.32302613 207.53855512 -262.34054375 200.24007034 C-262.35681326 193.37654128 -262.35207545 186.51329583 -262.3332386 179.64977455 C-262.32954806 177.13109071 -262.33267465 174.61238626 -262.34312439 172.09372139 C-262.35630342 168.65457535 -262.34481272 165.21635824 -262.32713318 161.7772522 C-262.33673819 160.78132825 -262.34634319 159.78540429 -262.35623926 158.75930083 C-262.28093625 151.63617818 -260.84761919 146.09405342 -255.890625 140.80688477 C-249.75564259 136.35809584 -243.36698068 132.52151049 -236.76342773 128.80859375 C-235.02524799 127.81854269 -233.28707602 126.82847745 -231.54951477 125.83734131 C-229.78131955 124.82941715 -228.01164942 123.82411613 -226.24194336 122.81884766 C-221.14530228 119.91282975 -216.0779052 116.95770652 -211.01342773 113.99609375 C-210.04163574 113.42858398 -209.06984375 112.86107422 -208.06860352 112.27636719 C-197.17948138 105.91478078 -186.3012491 99.53457629 -175.4234314 93.15368652 C-171.05334482 90.59040686 -166.68208772 88.0291317 -162.31030273 85.46875 C-151.47177511 79.12039739 -140.63573813 72.76828617 -129.82592773 66.37109375 C-121.48360843 61.43415038 -113.12708555 56.52176638 -104.76342773 51.62109375 C-104.15522186 51.26470825 -103.54701599 50.90832275 -102.92037964 50.5411377 C-97.92758681 47.61576909 -92.93420014 44.69141465 -87.9407959 41.76708984 C-68.6492636 30.4702056 -68.6492636 30.4702056 -49.38842773 19.12109375 C-48.52121094 18.60869141 -47.65399414 18.09628906 -46.76049805 17.56835938 C-42.06407638 14.79168145 -37.37270886 12.00671574 -32.68530273 9.21484375 C-31.67395264 8.61381836 -30.66260254 8.01279297 -29.62060547 7.39355469 C-27.67597474 6.23776107 -25.73270933 5.07966627 -23.79101562 3.91894531 C-22.92210693 3.40299805 -22.05319824 2.88705078 -21.15795898 2.35546875 C-20.39201416 1.89881836 -19.62606934 1.44216797 -18.83691406 0.97167969 C-13.04749425 -2.19679239 -6.09914529 -2.43649657 0 0 Z " fill="#FEFEFE" transform="translate(519.825927734375,229.12890625)"/>
<path d="M0 0 C3.36709432 1.83359219 6.66718471 3.76199655 9.95410156 5.73388672 C11.18946375 6.45913352 12.42564596 7.18298513 13.66259766 7.90551758 C16.85574904 9.77604317 20.03735833 11.66527039 23.21557617 13.56103516 C26.13960121 15.30326834 29.07065844 17.03350868 32.00097656 18.76513672 C35.35989907 20.75225948 38.71731443 22.74175216 42.07080078 24.73803711 C49.70357403 29.28098477 57.37647141 33.74804235 65.07910156 38.17138672 C75.09636938 43.92484393 85.04589013 49.78453941 94.97363281 55.69091797 C102.64111097 60.24541768 110.34652768 64.72843524 118.07910156 69.17138672 C121.28430482 71.01851561 124.48865182 72.86711563 127.69238281 74.71679688 C130.06378791 76.0854149 132.43620443 77.45217709 134.80957031 78.81738281 C137.96474902 80.63400543 141.11285385 82.46241366 144.25683594 84.29833984 C145.46167504 84.99954846 146.66868177 85.69704713 147.87792969 86.390625 C149.55487072 87.35322662 151.22344565 88.33035858 152.89160156 89.30810547 C154.32439453 90.13894653 154.32439453 90.13894653 155.78613281 90.98657227 C158.16700104 92.73597299 159.04814842 93.94092519 160.07910156 96.67138672 C150.01377481 103.12270639 139.77025405 109.25695479 129.45410156 115.29638672 C128.84861481 115.65111053 128.24312805 116.00583435 127.61929321 116.37130737 C124.04695679 118.46273875 120.468577 120.54342287 116.88659668 122.61828613 C115.02229072 123.70448641 113.16621006 124.80389491 111.31054688 125.90478516 C110.07987794 126.62667855 108.84908771 127.34836522 107.61816406 128.06982422 C106.52971191 128.7135498 105.44125977 129.35727539 104.31982422 130.02050781 C98.76166643 132.85192735 93.30468893 134.48968159 87.07910156 133.67138672 C83.4096802 132.04253693 80.05353621 129.96601433 76.64160156 127.85888672 C75.61607178 127.24303711 74.59054199 126.6271875 73.53393555 125.99267578 C71.27312222 124.63461487 69.01607202 123.27160867 66.76269531 121.90136719 C62.85282806 119.52821589 58.92089378 117.19305166 54.98535156 114.86279297 C53.9563549 114.25340881 53.9563549 114.25340881 52.90657043 113.63171387 C51.51478859 112.80757263 50.12296825 111.9834964 48.73110962 111.15948486 C45.29658686 109.12442391 41.86570129 107.08325286 38.43457031 105.04248047 C30.33200992 100.22496996 22.22513203 95.41514769 14.07910156 90.67138672 C13.09393555 90.09759277 13.09393555 90.09759277 12.08886719 89.51220703 C10.12952622 88.37382426 8.16748496 87.24028069 6.20410156 86.10888672 C5.09292969 85.46822266 3.98175781 84.82755859 2.83691406 84.16748047 C-2.35946733 81.34848037 -7.39359607 80.64450107 -13.08032227 82.30004883 C-19.92758955 84.97827546 -26.04001727 88.55016927 -32.26818848 92.43734741 C-35.34797761 94.35869976 -38.44424071 96.25325294 -41.53808594 98.15185547 C-42.16255615 98.53600113 -42.78702637 98.92014679 -43.43041992 99.31593323 C-49.29368929 102.91687628 -55.21937841 106.40582854 -61.17089844 109.85888672 C-62.63644165 110.70978882 -62.63644165 110.70978882 -64.1315918 111.57788086 C-66.08974911 112.71361534 -68.04832334 113.84863133 -70.00732422 114.98291016 C-75.85848039 118.37377626 -81.69880125 121.78328695 -87.53735352 125.19580078 C-92.55009546 128.12518191 -97.56682829 131.04712676 -102.59526062 133.94947815 C-105.21204023 135.46127296 -107.82565796 136.97848373 -110.43887329 138.49642944 C-111.69837884 139.22637357 -112.95922328 139.95401336 -114.2215271 140.67910767 C-128.04538929 148.05257323 -128.04538929 148.05257323 -137.92089844 159.67138672 C-138.3655571 162.29699444 -138.3655571 162.29699444 -138.30184937 165.09165955 C-138.31030884 166.16687363 -138.31876831 167.24208771 -138.32748413 168.34988403 C-138.32141144 169.51937592 -138.31533875 170.6888678 -138.30908203 171.89379883 C-138.31433899 173.13334824 -138.31959595 174.37289764 -138.32501221 175.65000916 C-138.33594389 179.0427633 -138.33339509 182.43496765 -138.32387495 185.82769084 C-138.31626664 189.38298312 -138.32332737 192.9382523 -138.32803345 196.49354553 C-138.33348831 202.46457117 -138.32630725 208.43548542 -138.31201172 214.40649414 C-138.29569311 221.30197395 -138.30096891 228.19718751 -138.31749094 235.09266084 C-138.33112245 241.0197934 -138.33301712 246.94684599 -138.32517493 252.87398916 C-138.32050657 256.41095532 -138.31985023 259.94779652 -138.32978439 263.48475456 C-138.34009104 267.42980093 -138.32578937 271.37455126 -138.30908203 275.31958008 C-138.31515472 276.48704773 -138.32122742 277.65451538 -138.32748413 278.85736084 C-138.27114248 286.03726601 -137.76434532 290.86824066 -132.44042969 296.11669922 C-127.79509995 299.70011713 -122.65499297 302.57510361 -117.60839844 305.54638672 C-115.91982127 306.54966751 -114.23124882 307.55295637 -112.54298401 308.5567627 C-110.80332446 309.59032035 -109.06237847 310.62168527 -107.32128906 311.65283203 C-103.15801338 314.12425387 -99.00859022 316.61819644 -94.86035156 319.11474609 C-86.99425405 323.84873451 -79.11602178 328.56159058 -71.21777344 333.24169922 C-70.55574921 333.63402237 -69.89372498 334.02634552 -69.2116394 334.43055725 C-66.5014664 336.036426 -63.79122219 337.64217323 -61.0803833 339.24691772 C-53.63964804 343.65291439 -46.21572461 348.08347252 -38.83496094 352.58935547 C-38.18882339 352.98354675 -37.54268585 353.37773804 -36.87696838 353.78387451 C-33.81077119 355.65577479 -30.74776008 357.53262551 -27.68920898 359.41699219 C-26.60679932 360.07973145 -25.52438965 360.7424707 -24.40917969 361.42529297 C-23.46598877 362.00609619 -22.52279785 362.58689941 -21.55102539 363.18530273 C-15.00765014 366.88246464 -9.36743898 367.66845065 -1.92089844 366.67138672 C4.79632074 364.33766328 10.63840896 360.34791645 16.55957031 356.47998047 C23.75195236 351.81957096 31.1033837 347.46875982 38.51660156 343.17138672 C40.93280692 341.76657826 43.34797698 340.35999948 45.76269531 338.95263672 C46.3637056 338.6025354 46.96471588 338.25243408 47.5839386 337.89172363 C53.16958587 334.63158227 58.71414065 331.30470453 64.25561523 327.97021484 C70.16018347 324.41733527 76.08078729 320.89139373 82.00366211 317.36914062 C83.34429975 316.57142464 84.68447041 315.77292331 86.02416992 314.97363281 C88.02963818 313.77723444 90.03645122 312.58313243 92.04394531 311.39013672 C92.69761078 311.00100098 93.35127625 310.61186523 94.02474976 310.2109375 C97.50008662 308.15407172 100.99737787 306.15235043 104.54052734 304.21435547 C105.63404259 303.61355164 105.63404259 303.61355164 106.74964905 303.00061035 C108.14323129 302.23884762 109.54102239 301.48471657 110.94358826 300.73962402 C114.52340379 298.78224311 116.96930264 297.17398525 119.07910156 293.67138672 C119.5468754 291.17464348 119.5468754 291.17464348 119.51147461 288.44384766 C119.54116585 286.88268219 119.54116585 286.88268219 119.57145691 285.28997803 C119.57784683 284.17318665 119.58423676 283.05639526 119.59082031 281.90576172 C119.60877151 280.75722717 119.62672272 279.60869263 119.6452179 278.425354 C119.69939497 274.75740224 119.73324125 271.08958117 119.76660156 267.42138672 C119.799768 264.93438934 119.83425702 262.44740922 119.87011719 259.96044922 C119.95512582 253.86421224 120.02344452 247.7679585 120.07910156 241.67138672 C129.44946095 241.64826168 138.81981058 241.63047081 148.19019222 241.61957455 C152.54078615 241.61434607 156.89136063 241.60724907 161.24194336 241.59594727 C165.43700414 241.58511713 169.63204615 241.57910962 173.82711983 241.57650948 C175.43117125 241.57465545 177.03522159 241.57103528 178.63926506 241.56565666 C180.87826671 241.55844453 183.11718986 241.55739585 185.35620117 241.55786133 C186.63305283 241.55564072 187.90990448 241.5534201 189.22544861 241.5511322 C192.07910156 241.67138672 192.07910156 241.67138672 193.07910156 242.67138672 C193.19007447 245.13433649 193.23648717 247.56951093 193.24023438 250.03344727 C193.24519928 250.80424118 193.25016418 251.5750351 193.25527954 252.3691864 C193.26994387 254.93216837 193.27671178 257.49508835 193.28222656 260.05810547 C193.28797646 261.83592227 193.29373422 263.61373904 193.29949951 265.39155579 C193.31002299 269.12668142 193.31585618 272.86178545 193.31933594 276.59692383 C193.32481 281.37750665 193.34880894 286.15780311 193.37730789 290.93829632 C193.39596009 294.614373 193.40114134 298.29038124 193.40267181 301.96650124 C193.40569529 303.72831594 193.41371354 305.49012954 193.42685699 307.25189781 C193.44396438 309.72226851 193.44202548 312.19194716 193.43554688 314.66235352 C193.44476166 315.3872699 193.45397644 316.11218628 193.46347046 316.85906982 C193.42520821 321.53048946 192.51464993 324.69235941 190.07910156 328.67138672 C188.15014648 330.45898438 188.15014648 330.45898438 185.87207031 331.96044922 C184.53861572 332.84071777 184.53861572 332.84071777 183.17822266 333.73876953 C176.97386429 337.60781797 170.69762433 341.34590831 164.39160156 345.04638672 C162.33978201 346.25542948 160.2886461 347.46562643 158.23751831 348.67584229 C156.87198769 349.48140652 155.50620309 350.28654037 154.14016724 351.09124756 C147.09513582 355.243654 140.08618107 359.45536823 133.07910156 363.67138672 C123.69730493 369.31316768 114.29608156 374.92049979 104.87524414 380.49682617 C93.9047084 386.99273355 82.96564167 393.53566185 72.07910156 400.17138672 C60.55338344 407.19671282 48.96626777 414.11426038 37.35058594 420.98974609 C36.72099472 421.36244125 36.0914035 421.73513641 35.44273376 422.11912537 C34.19472512 422.85789916 32.94664855 423.59655819 31.69850159 424.33509827 C26.51596868 427.40483654 21.3505886 430.50278578 16.19425964 433.61633301 C-0.84475107 443.87842566 -0.84475107 443.87842566 -8.11230469 443.37841797 C-18.58307972 440.7425205 -28.33726346 433.98545293 -37.43652344 428.40576172 C-42.66499875 425.20215898 -47.94449618 422.08516829 -53.22207642 418.96334839 C-54.9921042 417.91623657 -56.76161955 416.86826369 -58.53100586 415.82006836 C-63.90950292 412.63430011 -69.29011574 409.45215074 -74.67480469 406.27685547 C-84.23966368 400.63582026 -93.78157234 394.95981587 -103.29589844 389.23388672 C-114.56495285 382.45464153 -125.9115338 375.81480561 -137.28173828 369.20703125 C-146.00355551 364.13207932 -154.68896491 358.99518153 -163.37011719 353.85107422 C-163.94251129 353.51197525 -164.5149054 353.17287628 -165.10464478 352.82350159 C-168.05282574 351.07652713 -170.99972929 349.32745603 -173.94433594 347.57446289 C-179.01181789 344.56026075 -184.08345133 341.56003176 -189.22167969 338.66748047 C-189.99640625 338.22726562 -190.77113281 337.78705078 -191.56933594 337.33349609 C-192.9470596 336.55386366 -194.33065085 335.78444607 -195.72167969 335.02880859 C-201.20761797 331.90810006 -205.88664786 327.77413845 -207.92089844 321.67138672 C-208.01902818 318.93214443 -208.0599543 316.21839178 -208.05461121 313.47901917 C-208.05687676 312.63398282 -208.05914232 311.78894647 -208.06147653 310.91830295 C-208.0678253 308.07629954 -208.0669866 305.23434372 -208.06616211 302.39233398 C-208.06915303 300.35899799 -208.07255541 298.32566256 -208.07633972 296.29232788 C-208.0851902 290.76141858 -208.08751826 285.23052474 -208.08815551 279.69960904 C-208.08910375 275.08706464 -208.09278103 270.47452386 -208.0963276 265.86198086 C-208.10447597 254.98293655 -208.10691147 244.10390052 -208.10620117 233.22485352 C-208.10560011 221.99077813 -208.11615682 210.75675073 -208.13194484 199.52268749 C-208.14500558 189.88697316 -208.15038569 180.25127454 -208.14974576 170.61555141 C-208.14949036 164.8564062 -208.15236455 159.09730361 -208.16292381 153.33816719 C-208.17258029 147.92342992 -208.17270086 142.50877626 -208.16540718 137.0940361 C-208.16435832 135.10420421 -208.16674201 133.11436719 -208.17276764 131.12454414 C-208.18044793 128.41317601 -208.17586915 125.70209945 -208.1681366 122.99073792 C-208.17328016 122.19900934 -208.17842372 121.40728077 -208.18372315 120.59156042 C-208.14079871 113.80420446 -208.14079871 113.80420446 -205.92089844 110.67138672 C-203.72558594 109.02294922 -203.72558594 109.02294922 -200.79589844 107.29638672 C-200.23878174 106.96461426 -199.68166504 106.6328418 -199.10766602 106.29101562 C-197.05216764 105.07264314 -194.98673938 103.87213737 -192.92089844 102.67138672 C-191.13553022 101.62487325 -189.35038951 100.57797159 -187.56542969 99.53076172 C-182.40865014 96.5112436 -177.24343358 93.50641929 -172.07617188 90.50488281 C-167.12552861 87.62811626 -162.17924285 84.74389367 -157.23339844 81.85888672 C-156.2535498 81.2874292 -155.27370117 80.71597168 -154.26416016 80.12719727 C-141.47081386 72.66286609 -128.69675955 65.16558823 -115.92089844 57.67138672 C-99.23871012 47.88576994 -82.55020951 38.11134662 -65.84033203 28.37304688 C-61.86854018 26.05799509 -57.89756809 23.74153959 -53.92675781 21.42480469 C-51.94001473 20.26587122 -49.9530396 19.10733547 -47.96582031 17.94921875 C-42.6996284 14.87958777 -37.43816983 11.80217191 -32.18261719 8.71435547 C-31.08240234 8.06917969 -29.9821875 7.42400391 -28.84863281 6.75927734 C-26.73010626 5.51676599 -24.61286248 4.27206421 -22.49707031 3.02490234 C-21.54767578 2.46867187 -20.59828125 1.91244141 -19.62011719 1.33935547 C-18.3646106 0.60108521 -18.3646106 0.60108521 -17.08374023 -0.15209961 C-11.2594905 -3.32029686 -5.86278591 -2.66677373 0 0 Z " fill="#000000" transform="translate(519.9208984375,293.32861328125)"/>
</svg>
